<svg width="27" height="27" viewBox="0 0 27 27" fill="none" xmlns="http://www.w3.org/2000/svg">
<path d="M24 18H18C18 19.1935 17.5259 20.3381 16.682 21.182C15.8381 22.0259 14.6935 22.5 13.5 22.5C12.3065 22.5 11.1619 22.0259 10.318 21.182C9.4741 20.3381 9 19.1935 9 18H3V3H24M24 0H3C2.20435 0 1.44129 0.31607 0.87868 0.87868C0.31607 1.44129 0 2.20435 0 3V24C0 24.7956 0.31607 25.5587 0.87868 26.1213C1.44129 26.6839 2.20435 27 3 27H24C24.7956 27 25.5587 26.6839 26.1213 26.1213C26.6839 25.5587 27 24.7956 27 24V3C27 2.20435 26.6839 1.44129 26.1213 0.87868C25.5587 0.31607 24.7956 0 24 0Z" fill="#2C8BA4"/>
</svg>
