<svg width="20" height="24" viewBox="0 0 20 24" fill="none" xmlns="http://www.w3.org/2000/svg">
<path d="M0.749771 17H13.2498C13.4398 17.0001 13.6227 17.0722 13.7616 17.202C13.9004 17.3317 13.9848 17.5093 13.9978 17.6989C14.0107 17.8885 13.9513 18.0759 13.8313 18.2233C13.7114 18.3707 13.54 18.4671 13.3518 18.493L13.2498 18.5H0.749771C0.559748 18.4999 0.37683 18.4278 0.23798 18.298C0.0991288 18.1683 0.0146974 17.9907 0.00174539 17.8011C-0.0112066 17.6115 0.0482865 17.4241 0.168204 17.2767C0.288121 17.1293 0.459521 17.0329 0.647771 17.007L0.749771 17H13.2498H0.749771ZM0.749771 13H19.2498C19.4398 13.0001 19.6227 13.0722 19.7616 13.202C19.9004 13.3317 19.9848 13.5093 19.9978 13.6989C20.0107 13.8885 19.9513 14.0759 19.8313 14.2233C19.7114 14.3707 19.54 14.4671 19.3518 14.493L19.2498 14.5H0.749771C0.559748 14.4999 0.37683 14.4278 0.23798 14.298C0.0991288 14.1683 0.0146974 13.9907 0.00174539 13.8011C-0.0112066 13.6115 0.0482865 13.4241 0.168204 13.2767C0.288121 13.1293 0.459521 13.0329 0.647771 13.007L0.749771 13H19.2498H0.749771ZM0.749771 9H19.2498C19.4398 9.00006 19.6227 9.07224 19.7616 9.20197C19.9004 9.3317 19.9848 9.5093 19.9978 9.69888C20.0107 9.88846 19.9513 10.0759 19.8313 10.2233C19.7114 10.3707 19.54 10.4671 19.3518 10.493L19.2498 10.5H0.749771C0.559748 10.4999 0.37683 10.4278 0.23798 10.298C0.0991288 10.1683 0.0146974 9.9907 0.00174539 9.80112C-0.0112066 9.61154 0.0482865 9.42411 0.168204 9.2767C0.288121 9.12929 0.459521 9.0329 0.647771 9.007L0.749771 9H19.2498H0.749771ZM0.749771 5H19.2498C19.4398 5.00006 19.6227 5.07224 19.7616 5.20197C19.9004 5.3317 19.9848 5.5093 19.9978 5.69888C20.0107 5.88846 19.9513 6.07589 19.8313 6.2233C19.7114 6.37071 19.54 6.4671 19.3518 6.493L19.2498 6.5H0.749771C0.559748 6.49994 0.37683 6.42776 0.23798 6.29803C0.0991288 6.1683 0.0146974 5.9907 0.00174539 5.80112C-0.0112066 5.61154 0.0482865 5.42411 0.168204 5.2767C0.288121 5.12929 0.459521 5.0329 0.647771 5.007L0.749771 5H19.2498H0.749771Z" fill="#2C8BA4"/>
</svg>
