<svg width="34" height="34" viewBox="0 0 34 34" fill="none" xmlns="http://www.w3.org/2000/svg">
<circle cx="17" cy="17" r="16.5" fill="white" stroke="#7A7A7A"/>
<path d="M17 8.90479C18.0735 8.90479 19.103 9.33123 19.8621 10.0903C20.6212 10.8494 21.0476 11.8789 21.0476 12.9524C21.0476 14.0259 20.6212 15.0554 19.8621 15.8145C19.103 16.5736 18.0735 17 17 17C15.9265 17 14.897 16.5736 14.1379 15.8145C13.3788 15.0554 12.9524 14.0259 12.9524 12.9524C12.9524 11.8789 13.3788 10.8494 14.1379 10.0903C14.897 9.33123 15.9265 8.90479 17 8.90479ZM17 19.0238C21.4726 19.0238 25.0953 20.8351 25.0953 23.0715V25.0953H8.90479V23.0715C8.90479 20.8351 12.5274 19.0238 17 19.0238Z" fill="#2C8BA4"/>
</svg>
