<svg width="50" height="5" viewBox="0 0 50 5" fill="none" xmlns="http://www.w3.org/2000/svg">
<mask id="path-1-inside-1_348_355" fill="white">
<path d="M0 2.5C0 1.11929 1.11929 0 2.5 0H47.5C48.8807 0 50 1.11929 50 2.5C50 3.88071 48.8807 5 47.5 5H2.5C1.11929 5 0 3.88071 0 2.5Z"/>
</mask>
<path d="M0 2.5C0 1.11929 1.11929 0 2.5 0H47.5C48.8807 0 50 1.11929 50 2.5C50 3.88071 48.8807 5 47.5 5H2.5C1.11929 5 0 3.88071 0 2.5Z" fill="#D9D9D9"/>
<path d="M0 0H50H0ZM50 2.5C50 6.64214 46.6421 10 42.5 10H7.5C3.35786 10 0 6.64214 0 2.5C7.90669e-09 1.83696 0.263392 1.20107 0.732233 0.732233C1.20107 0.263392 1.83696 -7.90669e-09 2.5 0V0H0L47.5 0C48.163 7.90669e-09 48.7989 0.263392 49.2678 0.732233C49.7366 1.20107 50 1.83696 50 2.5ZM0 5V0V5ZM50 0V5V0Z" fill="#F2F3F5" mask="url(#path-1-inside-1_348_355)"/>
</svg>
