<svg width="29" height="28" viewBox="0 0 29 28" fill="none" xmlns="http://www.w3.org/2000/svg">
<path d="M14.5 0C11.6322 0 8.82875 0.821086 6.44424 2.35943C4.05972 3.89776 2.20122 6.08427 1.10375 8.64243C0.0062826 11.2006 -0.280866 14.0155 0.27862 16.7313C0.838105 19.447 2.2191 21.9416 4.24696 23.8995C6.27482 25.8574 8.85847 27.1908 11.6712 27.731C14.4839 28.2712 17.3994 27.9939 20.0489 26.9343C22.6984 25.8747 24.963 24.0803 26.5563 21.778C28.1496 19.4757 29 16.7689 29 14C28.9956 10.2883 27.4665 6.72977 24.7482 4.10518C22.0299 1.48059 18.3443 0.00423472 14.5 0ZM14.5 26C11.2037 26 8.04249 24.7357 5.71168 22.4853C3.38087 20.2348 2.07143 17.1826 2.07143 14C2.07143 10.8174 3.38087 7.76515 5.71168 5.51472C8.04249 3.26428 11.2037 2 14.5 2V14L23.2839 22.481C22.1319 23.5972 20.763 24.4827 19.2555 25.0866C17.7481 25.6905 16.132 26.0009 14.5 26Z" fill="#2C8BA4"/>
</svg>
