<svg width="27" height="29" viewBox="0 0 27 29" fill="none" xmlns="http://www.w3.org/2000/svg">
<path d="M9 21.025C7.95 21.025 7.0625 20.6746 6.3375 19.9737C5.6125 19.2729 5.25 18.415 5.25 17.4C5.25 16.385 5.6125 15.5271 6.3375 14.8263C7.0625 14.1254 7.95 13.775 9 13.775C10.05 13.775 10.9375 14.1254 11.6625 14.8263C12.3875 15.5271 12.75 16.385 12.75 17.4C12.75 18.415 12.3875 19.2729 11.6625 19.9737C10.9375 20.6746 10.05 21.025 9 21.025ZM3 29C2.175 29 1.4685 28.7163 0.8805 28.1489C0.2935 27.5805 0 26.8975 0 26.1V5.8C0 5.0025 0.2935 4.32003 0.8805 3.7526C1.4685 3.1842 2.175 2.9 3 2.9H4.5V1.45C4.5 1.03917 4.6435 0.69455 4.9305 0.41615C5.2185 0.138717 5.575 0 6 0C6.425 0 6.7815 0.138717 7.0695 0.41615C7.3565 0.69455 7.5 1.03917 7.5 1.45V2.9H19.5V1.45C19.5 1.03917 19.644 0.69455 19.932 0.41615C20.219 0.138717 20.575 0 21 0C21.425 0 21.781 0.138717 22.068 0.41615C22.356 0.69455 22.5 1.03917 22.5 1.45V2.9H24C24.825 2.9 25.5315 3.1842 26.1195 3.7526C26.7065 4.32003 27 5.0025 27 5.8V26.1C27 26.8975 26.7065 27.5805 26.1195 28.1489C25.5315 28.7163 24.825 29 24 29H3ZM3 26.1H24V11.6H3V26.1Z" fill="#2C8BA4"/>
</svg>
