<svg width="27" height="29" viewBox="0 0 27 29" fill="none" xmlns="http://www.w3.org/2000/svg">
<path d="M19.4 26.3636C19.1239 26.3636 18.9 26.1398 18.9 25.8636V24.2273C18.9 23.9511 19.1239 23.7273 19.4 23.7273H23.8C24.0761 23.7273 24.3 23.5034 24.3 23.2273V11.0455C24.3 10.7693 24.0761 10.5455 23.8 10.5455H5.9C5.62386 10.5455 5.4 10.7693 5.4 11.0455V15.3182C5.4 15.5943 5.17614 15.8182 4.9 15.8182H3.2C2.92386 15.8182 2.7 15.5943 2.7 15.3182V5.27273C2.7 4.54773 2.96415 3.9273 3.49245 3.41145C4.02165 2.89473 4.6575 2.63636 5.4 2.63636H6.25C6.52614 2.63636 6.75 2.41251 6.75 2.13636V0.500001C6.75 0.223858 6.97386 0 7.25 0H8.95C9.22614 0 9.45 0.223858 9.45 0.5V2.13636C9.45 2.41251 9.67386 2.63636 9.95 2.63636H19.75C20.0261 2.63636 20.25 2.41251 20.25 2.13636V0.500001C20.25 0.223858 20.4739 0 20.75 0H22.45C22.7261 0 22.95 0.223858 22.95 0.5V2.13636C22.95 2.41251 23.1739 2.63636 23.45 2.63636H24.3C25.0425 2.63636 25.6784 2.89473 26.2076 3.41145C26.7359 3.9273 27 4.54773 27 5.27273V23.7273C27 24.4523 26.7359 25.0731 26.2076 25.5899C25.6784 26.1057 25.0425 26.3636 24.3 26.3636H19.4ZM9.79931 28.6589C9.60506 28.8486 9.29494 28.8486 9.10069 28.6589L7.92461 27.5106C7.72437 27.315 7.7236 26.9933 7.92289 26.7968L10.168 24.5833C10.4864 24.2694 10.2641 23.7273 9.81693 23.7273H0.5C0.223858 23.7273 0 23.5034 0 23.2273V21.5909C0 21.3148 0.223858 21.0909 0.5 21.0909H9.81693C10.2641 21.0909 10.4864 20.5488 10.168 20.2349L7.92289 18.0214C7.7236 17.8249 7.72437 17.5031 7.92461 17.3076L9.10069 16.1593C9.29494 15.9696 9.60506 15.9696 9.79931 16.1593L15.8336 22.0513C16.0345 22.2475 16.0345 22.5707 15.8336 22.7668L9.79931 28.6589Z" fill="#2C8BA4"/>
</svg>
